# xmcd CD database file
#
# Track frame offsets:
#	150
#	17039
#	32605
#	48624
#	63784
#	77110
#	89551
#	104200
#	118303
#	132651
#	144200
#	160133
#
# Disc length: 2393 seconds
#
# Revision: 0
# Processed by: cddbd v1.5.1PL0 Copyright (c) Steve Scherf et al.
# Submitted via: freeDB plugin v1.0
#
DISCID=a909570c
DTITLE=MARIA CREUZA - MEIA NOITE
DYEAR=1900
DGENRE=Jazz
TTITLE0=Dom De Iludir
TTITLE1=Onde Anda Voce
TTITLE2=Palavras Cruzadas
TTITLE3=Outra Vez Bahia
TTITLE4=Castigo
TTITLE5=Fim De Noite
TTITLE6=Otalia Da Bahia
TTITLE7=Tortura De Amor
TTITLE8=O Amor Em Paz-Brigas nunca mais-Voce e eu-Onosso amor
TTITLE9=Tete
TTITLE10=A Distancia
TTITLE11=Meia Noite
EXTD=
EXTT0=
EXTT1=
EXTT2=
EXTT3=
EXTT4=
EXTT5=
EXTT6=
EXTT7=
EXTT8=
EXTT9=
EXTT10=
EXTT11=
PLAYORDER=
